# xmcd
#
# Track frame offsets: 
#        150
#        12615
#        31509
#        45691
#        52952
#        80518
#        96359
#        115012
#        135221
#
# Disc length: 2211 seconds
#
# Revision: 0
# Processed by: cddbd v1.5.2PL0 Copyright (c) Steve Scherf et al.
# Submitted via: ExactAudioCopy v0.95b4
#
DISCID=6408a109
DTITLE=James Booker - King of the New Orleans Keyboard Vol. 2
DYEAR=1977
DGENRE=NOLA
TTITLE0=Put Out The Light
TTITLE1=Ray Charles Medley
TTITLE2=Tipitina
TTITLE3=Blueberry Hill
TTITLE4=Junco Partner
TTITLE5=Drown in the River
TTITLE6=Black Night Falling
TTITLE7=Goodnight Sweetheart
TTITLE8=Lonely Avenue/Stormy Monday
EXTD=
EXTT0=
EXTT1=
EXTT2=
EXTT3=
EXTT4=
EXTT5=
EXTT6=
EXTT7=
EXTT8=
PLAYORDER=
